<?xml version="1.0" encoding="UTF-8"?>
<svg width="16px" height="22px" viewBox="0 0 16 22" version="1.1" xmlns="http://www.w3.org/2000/svg" xmlns:xlink="http://www.w3.org/1999/xlink">
    <title>Icons / i58 - Emerald - Give Award Badge</title>
    <defs>
        <polygon id="path-1" points="8 0 16 5 16 17 8 22 0 17 0 5"></polygon>
        <polygon id="path-3" points="8 0 16 5 16 17 8 22 0 17 0 5"></polygon>
        <polygon id="path-5" points="8 0 16 5 16 17 8 22 0 17 0 5"></polygon>
        <linearGradient x1="71.5057373%" y1="100%" x2="16.3406372%" y2="-13.192749%" id="linearGradient-7">
            <stop stop-color="#FFFFFF" stop-opacity="0" offset="0%"></stop>
            <stop stop-color="#FFFFFF" offset="100%"></stop>
        </linearGradient>
    </defs>
    <g id="Icons" stroke="none" stroke-width="1" fill="none" fill-rule="evenodd">
        <g transform="translate(-897.000000, -684.000000)" id="Icons-/-i58---Emerald---Give-Award-Badge">
            <g transform="translate(893.000000, 683.000000)">
                <g id="I58-Emerald" transform="translate(4.000000, 1.000000)">
                    <mask id="mask-2" fill="white">
                        <use xlink:href="#path-1"></use>
                    </mask>
                    <use id="Polygon" fill="#85DE37" opacity="0.5" xlink:href="#path-1"></use>
                    <g id="Group" mask="url(#mask-2)">
                        <g id="texture">
                            <mask id="mask-4" fill="white">
                                <use xlink:href="#path-3"></use>
                            </mask>
                            <path stroke="#000000" stroke-width="2" d="M8,1.17924764 L1,5.55424764 L1,16.4457524 L8,20.8207524 L15,16.4457524 L15,5.55424764 L8,1.17924764 Z"></path>
                            <polygon id="Path" fill="#71DB26" fill-rule="nonzero" mask="url(#mask-4)" points="6.19 9.54 8.33 11 10.47 12.43 13.33 13.14 16 17 16 13 16 5 10 7 16 5 8 0 0 5 0 9 3.9 8.71"></polygon>
                            <polygon id="Mask" fill="#62BC00" fill-rule="nonzero" mask="url(#mask-4)" points="10 7 13.15 5.63 14 6 16 5 8 0 0 5 5 6"></polygon>
                            <polygon id="Path" fill="#4FB522" fill-rule="nonzero" mask="url(#mask-4)" points="8.67 15.42 13 17 16 17 16 12 13.33 13.14 10.47 12.43 8.33 11 6.19 9.54 3.9 8.71 -7.10542736e-15 9 -7.10542736e-15 14 4 16"></polygon>
                            <polygon id="Path" fill="#4B9200" fill-rule="nonzero" mask="url(#mask-4)" points="16 17 10 15 4 15 0 12 0 17 8 22"></polygon>
                        </g>
                        <g id="shade">
                            <mask id="mask-6" fill="white">
                                <use xlink:href="#path-5"></use>
                            </mask>
                            <use id="Polygon" fill="#85DE37" opacity="0" xlink:href="#path-5"></use>
                            <polygon id="Path" fill="#000000" fill-rule="nonzero" opacity="0.5" mask="url(#mask-6)" points="0 5 0 17 5 13 5 9"></polygon>
                            <polygon id="Path" fill="#000000" fill-rule="nonzero" opacity="0.3" mask="url(#mask-6)" points="11 9 16 5 16 17 11 13"></polygon>
                            <polygon id="Path" fill="#000000" fill-rule="nonzero" opacity="0.35" mask="url(#mask-6)" points="8 7 11 9 16 5 8 0"></polygon>
                            <polygon id="Path" fill="#000000" fill-rule="nonzero" opacity="0.282979911" mask="url(#mask-6)" points="8 15 8 22 0 17 5 13"></polygon>
                            <polygon id="Polygon" fill="url(#linearGradient-7)" mask="url(#mask-6)" points="8 7 11 9 11 13 8 15 5 13 5 9"></polygon>
                        </g>
                        <path d="M8,0 L16,5 L16,17 L8,22 L0,17 L0,5 L8,0 Z M8,2.357 L2,6.107 L2,15.892 L8,19.642 L14,15.892 L14,6.108 L8,2.357 Z" id="outline" fill="#000000" fill-rule="nonzero" opacity="0.5"></path>
                    </g>
                </g>
            </g>
        </g>
    </g>
</svg>