<?xml version="1.0" encoding="UTF-8"?>
<svg width="18px" height="22px" viewBox="0 0 18 22" version="1.1" xmlns="http://www.w3.org/2000/svg" xmlns:xlink="http://www.w3.org/1999/xlink">
    <title>Icons / i57 - Quartz - Give Core Badge</title>
    <defs>
        <polygon id="path-1" points="9 0 18 11 9 22 5.68434189e-14 11"></polygon>
        <linearGradient x1="75.0099182%" y1="100%" x2="37.1208191%" y2="22.3449707%" id="linearGradient-3">
            <stop stop-color="#FFFFFF" stop-opacity="0" offset="0%"></stop>
            <stop stop-color="#FEFEFE" offset="100%"></stop>
        </linearGradient>
    </defs>
    <g id="Icons" stroke="none" stroke-width="1" fill="none" fill-rule="evenodd">
        <g transform="translate(-847.000000, -684.000000)" id="Icons-/-i57---Quartz---Give-Core-Badge">
            <g transform="translate(844.000000, 683.000000)">
                <g transform="translate(3.000000, 1.000000)" id="Group-2">
                    <g>
                        <g id="colors">
                            <mask id="mask-2" fill="white">
                                <use xlink:href="#path-1"></use>
                            </mask>
                            <use id="Polygon" fill="#F2D957" xlink:href="#path-1"></use>
                            <polygon id="Path" fill="#FFDB78" fill-rule="nonzero" mask="url(#mask-2)" points="8.31351677 9 11.2990898 7.35810811 13.5984966 6.99324324 15 6.99324324 9.43837945 0 3.39106554 7.56714739 3 8.43440029 4.7308291 9 6.78276612 9"></polygon>
                            <polygon id="Path" fill="#F2F78F" fill-rule="nonzero" mask="url(#mask-2)" points="9.27010672 7.40153848 6.84347098 6.97086307 5.14508929 5 3.64006696 5.14264413 3.06182525 6.97086307 1 9 1.5186942 9.51464844 5.7046875 9.1525386 8.4375 9.77454822 10.479375 11 12.5315625 11 15.6051897 12.5 16.328404 14.0292969 18 11 13.4717494 5 12.6334141 5.14264413"></polygon>
                            <polygon id="Path" fill="#FFD900" fill-rule="nonzero" mask="url(#mask-2)" points="8.4375 9.70845921 5.7046875 9 3 8 5.68434189e-14 11 2 13 4.3434375 15.3021148 6.395625 16 9 14.6795247 11.7706084 13.9169184 14.8816877 13.47111 16 13 17 11.7645089 14.8816877 10.1125837 10.479375 11.1042296"></polygon>
                            <polygon id="Path" fill="#E2BB24" fill-rule="nonzero" mask="url(#mask-2)" points="6.6219308 15.5562919 4.40272737 14.5466427 1 12.1 9.03907343 22 18 11 14.4757254 13.8191964 12.6849888 13.8191964 9.5 14.5466427"></polygon>
                        </g>
                        <g id="shade" transform="translate(0.000000, 0.000000)">
                            <polygon id="Path-2" fill="#000000" opacity="0" points="9 7 9 0 0 11 6 11"></polygon>
                            <polygon id="Path-6" fill="#000000" opacity="0.121070499" points="9 15 9 22 0 11 6 11"></polygon>
                            <polygon id="Path-7" fill="#000000" opacity="0.330380394" points="18 11 9 22 9 15 12 11"></polygon>
                            <polygon id="Path-8" fill="#000000" opacity="0.199999988" points="12 11 18 11 9 0 9 7"></polygon>
                            <polygon id="Polygon" fill="url(#linearGradient-3)" points="9 7 12 11 9 15 6 11"></polygon>
                        </g>
                        <path d="M9,0 L18,11 L9,22 L5.68434189e-14,11 L9,0 Z M9,3.157 L2.583,11 L9,18.842 L15.416,11 L9,3.157 Z" id="Polygon" fill="#000000" fill-rule="nonzero" opacity="0.5"></path>
                    </g>
                </g>
            </g>
        </g>
    </g>
</svg>